REM MD5 f9a78c0d09319e9b8f773e5c3f919c6c
FILE "Twisted Metal 4 (USA) (Demo).bin" BINARY
  TRACK 01 MODE2/2352
    INDEX 01 00:00:00
  TRACK 02 AUDIO
    INDEX 00 08:51:09
    INDEX 01 08:53:09
  TRACK 03 AUDIO
    INDEX 00 13:29:67
    INDEX 01 13:31:67
REM LEADOUT 13:36:64
